<?xml version="1.0" encoding="UTF-8" standalone="no"?>
<svg
   xmlns:dc="http://purl.org/dc/elements/1.1/"
   xmlns:cc="http://creativecommons.org/ns#"
   xmlns:rdf="http://www.w3.org/1999/02/22-rdf-syntax-ns#"
   xmlns:svg="http://www.w3.org/2000/svg"
   xmlns="http://www.w3.org/2000/svg"
   version="1.1"
   id="svg5076"
   viewBox="0 0 667.87327 257.70363"
   height="72.729691mm"
   width="188.48868mm">
  <defs
     id="defs5078" />
  <metadata
     id="metadata5081">
    <rdf:RDF>
      <cc:Work
         rdf:about="">
        <dc:format>image/svg+xml</dc:format>
        <dc:type
           rdf:resource="http://purl.org/dc/dcmitype/StillImage" />
        <dc:title></dc:title>
      </cc:Work>
    </rdf:RDF>
  </metadata>
  <g
     transform="translate(-38.711029,-171.85535)"
     id="layer1">
    <path
       id="path5628-6"
       d="m 65.795119,305.06137 c 204.779521,0.053 399.568961,1.74454 605.552631,1.74454"
       style="fill:none;fill-rule:evenodd;stroke:#000000;stroke-width:1.34337437;stroke-linecap:round;stroke-linejoin:miter;stroke-miterlimit:4;stroke-dasharray:none;stroke-dashoffset:2.39803958;stroke-opacity:0.56213014" />
    <path
       id="path5628"
       d="m 39.909159,248.62944 c 89.557991,0.0741 174.746931,2.43431 264.831541,2.43431"
       style="fill:none;fill-rule:evenodd;stroke:#000000;stroke-width:2.36261129;stroke-linecap:round;stroke-linejoin:miter;stroke-miterlimit:4;stroke-dasharray:2.3626113, 9.45044518;stroke-dashoffset:2.39764524;stroke-opacity:0.56213014" />
    <path
       id="path5632"
       d="m 74.576627,200.72661 c 10.90175,-1.1139 16.06195,-3.17553 26.722893,-4.29397"
       style="fill:none;fill-rule:evenodd;stroke:#000000;stroke-width:4;stroke-linecap:round;stroke-linejoin:round;stroke-miterlimit:4;stroke-dasharray:none;stroke-opacity:1" />
    <path
       id="path5634"
       d="m 100.68114,196.40759 c 14.3994,59.50976 -31.695553,70.43307 -11.923953,35.17933 3.65955,-6.52517 7.08324,-14.07532 23.112883,-21.35328"
       style="fill:none;fill-rule:evenodd;stroke:#000000;stroke-width:4;stroke-linecap:round;stroke-linejoin:round;stroke-miterlimit:4;stroke-dasharray:none;stroke-opacity:1" />
    <path
       id="path5636"
       d="m 112.50413,222.74708 c -5.63955,13.22577 7.17558,16.87422 12.0954,12.36119 7.53617,-6.91308 -4.18207,-23.46096 -12.0954,-12.36119 z"
       style="fill:none;fill-rule:evenodd;stroke:#000000;stroke-width:4;stroke-linecap:round;stroke-linejoin:round;stroke-miterlimit:4;stroke-dasharray:none;stroke-opacity:1" />
    <path
       id="path5638"
       d="m 136.45763,199.57922 c -0.29098,13.00629 -0.21406,22.72679 0.42915,36.22267"
       style="fill:none;fill-rule:evenodd;stroke:#000000;stroke-width:4;stroke-linecap:round;stroke-linejoin:round;stroke-miterlimit:4;stroke-dasharray:none;stroke-opacity:1" />
    <path
       id="path5640"
       d="m 136.1586,221.17744 c 12.88584,-9.63065 17.39804,2.13574 16.49863,14.06368"
       style="fill:none;fill-rule:evenodd;stroke:#000000;stroke-width:4;stroke-linecap:round;stroke-linejoin:round;stroke-miterlimit:4;stroke-dasharray:none;stroke-opacity:1" />
    <path
       id="path5642"
       d="m 160.79266,215.94866 c 0.53125,6.11159 -0.3985,14.98418 0.39971,20.28772"
       style="fill:none;fill-rule:evenodd;stroke:#000000;stroke-width:4;stroke-linecap:round;stroke-linejoin:round;stroke-miterlimit:4;stroke-dasharray:none;stroke-opacity:1" />
    <path
       id="path5644"
       d="m 160.97779,221.23313 c 12.81501,-9.35452 12.76652,5.70042 13.19856,14.76561"
       style="fill:none;fill-rule:evenodd;stroke:#000000;stroke-width:4;stroke-linecap:round;stroke-linejoin:round;stroke-miterlimit:4;stroke-dasharray:none;stroke-opacity:1" />
    <path
       id="path5646"
       d="m 196.86988,202.96965 c 0.098,12.07016 -0.61889,23.84704 -0.10536,35.16077"
       style="fill:none;fill-rule:evenodd;stroke:#000000;stroke-width:4;stroke-linecap:round;stroke-linejoin:round;stroke-miterlimit:4;stroke-dasharray:none;stroke-opacity:1" />
    <path
       id="path5648"
       d="m 191.00263,238.04493 c 35.22999,0.98822 34.74248,-36.22267 -3.76636,-36.22267"
       style="fill:none;fill-rule:evenodd;stroke:#000000;stroke-width:4;stroke-linecap:round;stroke-linejoin:round;stroke-miterlimit:4;stroke-dasharray:none;stroke-opacity:1" />
    <path
       id="path5652"
       d="m 227.98993,221.11828 c -11.30808,1.23068 -5.17592,20.84602 4.36014,14.74015 4.80759,-3.07826 3.38327,-15.96081 -4.94471,-14.6694"
       style="fill:none;fill-rule:evenodd;stroke:#000000;stroke-width:4;stroke-linecap:round;stroke-linejoin:round;stroke-miterlimit:4;stroke-dasharray:none;stroke-opacity:1" />
    <path
       id="path5656"
       d="m 242.09441,228.45994 c 0.0811,-0.34475 7.88973,0.0318 14.8046,-1.25 -4.00308,-11.04958 -21.58874,-3.12047 -12.36316,6.60303 2.05872,2.16983 6.0038,3.63286 11.19765,1.32598"
       style="fill:none;fill-rule:evenodd;stroke:#000000;stroke-width:4;stroke-linecap:round;stroke-linejoin:round;stroke-miterlimit:4;stroke-dasharray:none;stroke-opacity:1" />
    <path
       id="path5672"
       d="m 616.344,245.06562 c -19.43647,16.42362 -260.67677,9.36009 -280.15004,4.2384 -13.43778,-11.62054 -12.6314,-43.29003 0.043,-67.81439 15.23251,-13.98789 257.85997,-7.6293 282.62771,4.23841 14.11132,25.51978 13.91459,45.83447 -2.52071,59.33758 z"
       style="fill:#ff0000;fill-rule:evenodd;stroke:#e20000;stroke-width:3.32995844;stroke-linecap:butt;stroke-linejoin:miter;stroke-miterlimit:4;stroke-dasharray:none;stroke-opacity:1" />
    <path
       id="path5676"
       d="m 360.14368,205.52497 c -0.17127,0.0896 9.78842,-1.85089 -0.5076,0.26867 -16.46143,3.38881 -12.57774,18.36459 8.87953,17.39221"
       style="fill:none;fill-rule:evenodd;stroke:#ffffff;stroke-width:2.59899998;stroke-linecap:round;stroke-linejoin:round;stroke-miterlimit:4;stroke-dasharray:none;stroke-opacity:1" />
    <path
       id="path5678"
       d="m 376.5126,186.65152 c 0,12.17182 0,27.57742 0,37.67642"
       style="fill:none;fill-rule:evenodd;stroke:#ffffff;stroke-width:2.59899998;stroke-linecap:round;stroke-linejoin:round;stroke-miterlimit:4;stroke-dasharray:none;stroke-opacity:1" />
    <path
       id="path5680"
       d="m 376.22531,209.50442 c 12.32419,-11.86188 17.91472,0.54132 15.80169,15.44116"
       style="fill:none;fill-rule:evenodd;stroke:#ffffff;stroke-width:2.59899998;stroke-linecap:round;stroke-linejoin:round;stroke-miterlimit:4;stroke-dasharray:none;stroke-opacity:1" />
    <path
       id="path5682"
       d="m 404.95567,208.57797 c -8.38796,0.23831 -5.12737,13.77385 0.88739,13.98493 5.65916,0.19861 10.70444,-12.35509 -0.88739,-13.98493 z"
       style="fill:none;fill-rule:evenodd;stroke:#ffffff;stroke-width:2.59899998;stroke-linecap:round;stroke-linejoin:round;stroke-miterlimit:4;stroke-dasharray:none;stroke-opacity:1" />
    <path
       id="path5684"
       d="m 412.42557,207.80589 c -1.08782,9.60637 1.28479,15.59557 7.61355,15.59557"
       style="fill:none;fill-rule:evenodd;stroke:#ffffff;stroke-width:2.59899998;stroke-linecap:round;stroke-linejoin:round;stroke-miterlimit:4;stroke-dasharray:none;stroke-opacity:1" />
    <path
       id="path5686"
       d="m 425.94541,208.2237 c 0.95157,4.92421 1.07099,11.06387 1.28063,15.09938"
       style="fill:none;fill-rule:evenodd;stroke:#ffffff;stroke-width:2.59899998;stroke-linecap:round;stroke-linejoin:round;stroke-miterlimit:4;stroke-dasharray:none;stroke-opacity:1" />
    <path
       id="path5688"
       d="m 426.58573,212.07558 c 7.48479,-7.75538 14.56713,1.32137 10.88534,10.6312"
       style="fill:none;fill-rule:evenodd;stroke:#ffffff;stroke-width:2.59899998;stroke-linecap:round;stroke-linejoin:round;stroke-miterlimit:4;stroke-dasharray:none;stroke-opacity:1" />
    <path
       id="path5690"
       d="m 449.43027,209.75148 c -7.0791,3.19701 0.01,13.59044 5.08755,12.03604 5.82019,-1.78135 4.76456,-16.69007 -5.08755,-12.03604 z"
       style="fill:none;fill-rule:evenodd;stroke:#ffffff;stroke-width:2.59899998;stroke-linecap:round;stroke-linejoin:round;stroke-miterlimit:4;stroke-dasharray:none;stroke-opacity:1" />
    <path
       id="path5698"
       d="m 458.19305,213.92058 c -0.11118,13.32741 -0.91661,31.70361 -9.62468,27.79407 -8.07045,-6.93703 9.38542,-15.2559 18.10014,-18.06614"
       style="fill:none;fill-rule:evenodd;stroke:#ffffff;stroke-width:2.59899998;stroke-linecap:round;stroke-linejoin:round;stroke-miterlimit:4;stroke-dasharray:none;stroke-opacity:1" />
    <path
       id="path5700"
       d="m 471.83994,215.77352 c 3.97133,-0.19063 9.1513,-1.29934 13.21597,-1.08087 0.23425,-7.7976 -8.73322,-7.29906 -11.94762,-3.18459 -3.8929,4.983 -1.22486,14.3327 12.23494,8.58899"
       style="fill:none;fill-rule:evenodd;stroke:#ffffff;stroke-width:2.59899998;stroke-linecap:round;stroke-linejoin:round;stroke-miterlimit:4;stroke-dasharray:none;stroke-opacity:1" />
    <path
       id="path5702"
       d="m 526.19781,209.50443 c -0.75673,5.1718 -0.18564,10.92052 0.2873,15.74997"
       style="fill:none;fill-rule:evenodd;stroke:#ffffff;stroke-width:2.59899998;stroke-linecap:round;stroke-linejoin:round;stroke-miterlimit:4;stroke-dasharray:none;stroke-opacity:1" />
    <path
       id="path5704"
       d="m 526.12598,214.90883 c 6.13267,-8.08972 13.07231,-2.49721 13.07231,10.80879"
       style="fill:none;fill-rule:evenodd;stroke:#ffffff;stroke-width:2.59899998;stroke-linecap:round;stroke-linejoin:round;stroke-miterlimit:4;stroke-dasharray:none;stroke-opacity:1" />
    <path
       id="path5708"
       d="m 551.55235,211.20295 c -10.29475,3.75126 -4.0321,15.01916 3.10038,12.6254 6.77866,-2.27503 1.46061,-14.68556 -3.10038,-12.6254 z"
       style="fill:none;fill-rule:evenodd;stroke:#ffffff;stroke-width:2.59899998;stroke-linecap:round;stroke-linejoin:round;stroke-miterlimit:4;stroke-dasharray:none;stroke-opacity:1" />
    <path
       id="path5710"
       d="m 557.44209,209.73604 c -1.20883,9.35155 3.07112,13.69988 8.33179,13.04777"
       style="fill:none;fill-rule:evenodd;stroke:#ffffff;stroke-width:2.59899998;stroke-linecap:round;stroke-linejoin:round;stroke-miterlimit:4;stroke-dasharray:none;stroke-opacity:1" />
    <path
       id="path5712"
       d="m 571.24312,209.99417 c 0.072,5.35563 -0.23298,8.55369 -0.0812,13.9201"
       style="fill:none;fill-rule:evenodd;stroke:#ffffff;stroke-width:2.59899998;stroke-linecap:round;stroke-linejoin:round;stroke-miterlimit:4;stroke-dasharray:none;stroke-opacity:1" />
    <path
       id="path5714"
       d="m 571.24312,217.82997 c 3.0457,-11.80825 8.25041,-4.47066 8.70155,6.26868"
       style="fill:none;fill-rule:evenodd;stroke:#ffffff;stroke-width:2.59899998;stroke-linecap:round;stroke-linejoin:round;stroke-miterlimit:4;stroke-dasharray:none;stroke-opacity:1" />
    <path
       id="path5716"
       d="m 578.31822,215.52533 c 5.47122,-8.32577 9.09816,-1.1201 8.13227,8.11238"
       style="fill:none;fill-rule:evenodd;stroke:#ffffff;stroke-width:2.59899998;stroke-linecap:round;stroke-linejoin:round;stroke-miterlimit:4;stroke-dasharray:none;stroke-opacity:1" />
    <path
       id="path5720"
       d="m 592.89681,216.93285 c 4.4329,0.19938 7.68835,-0.20902 10.47743,-0.20902 -1.89663,-15.56641 -23.26031,5.92566 0.50955,5.92566"
       style="fill:none;fill-rule:evenodd;stroke:#ffffff;stroke-width:2.59899998;stroke-linecap:round;stroke-linejoin:round;stroke-miterlimit:4;stroke-dasharray:none;stroke-opacity:1" />
    <path
       id="path5774"
       d="m 617.32798,282.36994 c -5.11901,-5.69329 -9.97252,-11.24199 -14.39459,-16.31855 -9.94219,-11.41369 -17.70345,-20.44068 -21.39778,-23.35801 -15.92403,-9.3572 -29.82169,8.99571 -8.07275,25.85259 24.09939,24.2214 25.46731,28.55111 50.60224,51.14015 -27.03202,-12.80464 -53.54569,12.93745 -13.9951,16.717 18.45814,1.84581 40.18586,5.60605 57.85714,16.07142 12.70968,-12.70968 26.99121,-25.26309 37.85714,-40.35714 -3.00722,-23.98021 -38.79893,-87.37461 -54.64286,-78.08037 -9.15238,7.82716 -4.54929,12.08289 0.83376,25.08862 -10.77932,-24.43114 -43.6138,-18.53421 -15.78607,12.3595 -16.15957,-19.38428 -29.58013,-22.61931 -31.9903,-4.46338"
       style="fill:#ffffff;fill-opacity:1;fill-rule:evenodd;stroke:#000000;stroke-width:1.60000002;stroke-linecap:round;stroke-linejoin:round;stroke-miterlimit:4;stroke-dasharray:none;stroke-opacity:1" />
    <a
       id="a5802" />
    <path
       id="path5672-5"
       d="m 571.50292,419.35491 c -15.06441,14.19088 -202.03979,8.08762 -217.13271,3.66221 -10.41507,-10.04077 -9.79009,-37.40489 0.0333,-58.59525 7.35981,-6.95715 91.62994,2.8943 166.50337,-3.86492 33.44145,-3.01895 48.37911,-0.72278 53.05523,10.56742 3.35395,19.44449 4.7181,33.52285 -2.45925,48.23054 z"
       style="fill:#ff0000;fill-rule:evenodd;stroke:#e20000;stroke-width:2.72506166;stroke-linecap:butt;stroke-linejoin:miter;stroke-miterlimit:4;stroke-dasharray:none;stroke-opacity:1" />
    <path
       id="path5676-0"
       d="m 418.39817,389.34888 c -0.13064,0.078 7.46633,-1.61217 -0.38718,0.23402 -12.55632,2.95173 -9.59395,15.99596 6.77305,15.14901"
       style="fill:none;fill-rule:evenodd;stroke:#ffffff;stroke-width:2.59899998;stroke-linecap:round;stroke-linejoin:round;stroke-miterlimit:4;stroke-dasharray:none;stroke-opacity:1" />
    <path
       id="path5708-1"
       d="m 386.2904,391.64609 c -10.29475,3.75126 -4.0321,15.01916 3.10038,12.6254 6.77866,-2.27503 1.46061,-14.68556 -3.10038,-12.6254 z"
       style="fill:none;fill-rule:evenodd;stroke:#ffffff;stroke-width:2.59899998;stroke-linecap:round;stroke-linejoin:round;stroke-miterlimit:4;stroke-dasharray:none;stroke-opacity:1" />
    <path
       id="path5710-5"
       d="m 392.18014,390.17918 c -1.20883,9.35155 3.07112,13.69988 8.33179,13.04777"
       style="fill:none;fill-rule:evenodd;stroke:#ffffff;stroke-width:2.59899998;stroke-linecap:round;stroke-linejoin:round;stroke-miterlimit:4;stroke-dasharray:none;stroke-opacity:1" />
    <path
       id="path5708-1-6"
       d="m 497.36567,391.97497 c -10.29475,3.75126 -4.0321,15.01916 3.10038,12.6254 6.77866,-2.27503 1.46061,-14.68556 -3.10038,-12.6254 z"
       style="fill:none;fill-rule:evenodd;stroke:#ffffff;stroke-width:2.59899998;stroke-linecap:round;stroke-linejoin:round;stroke-miterlimit:4;stroke-dasharray:none;stroke-opacity:1" />
    <path
       id="path5710-5-2"
       d="m 503.25541,390.50806 c -1.20883,9.35155 3.07112,13.69988 8.33179,13.04777"
       style="fill:none;fill-rule:evenodd;stroke:#ffffff;stroke-width:2.59899998;stroke-linecap:round;stroke-linejoin:round;stroke-miterlimit:4;stroke-dasharray:none;stroke-opacity:1" />
    <path
       id="path5720-4-1"
       d="m 532.42015,398.85695 c 4.4329,0.19938 7.68835,-0.20902 10.47743,-0.20902 -1.89663,-15.56641 -23.26031,5.92566 0.50955,5.92566"
       style="fill:none;fill-rule:evenodd;stroke:#ffffff;stroke-width:2.59899998;stroke-linecap:round;stroke-linejoin:round;stroke-miterlimit:4;stroke-dasharray:none;stroke-opacity:1" />
    <path
       id="path5984"
       d="m 429.84411,381.14398 c 4.56214,1.32384 9.53026,-0.37782 14.01913,-0.7501"
       style="fill:none;fill-rule:evenodd;stroke:#ffffff;stroke-width:2.59899998;stroke-linecap:butt;stroke-linejoin:miter;stroke-miterlimit:4;stroke-dasharray:none;stroke-opacity:1" />
    <path
       id="path5994"
       d="m 456.98949,393.10241 c 1.04314,6.73361 0.87073,10.62684 3.39286,13.21429"
       style="fill:none;fill-rule:evenodd;stroke:#ffffff;stroke-width:2.59899998;stroke-linecap:butt;stroke-linejoin:miter;stroke-miterlimit:4;stroke-dasharray:none;stroke-opacity:1" />
    <path
       id="path6000"
       d="m 454.59149,386.24617 c -1.33116,3.00839 3.32011,4.02192 4.24845,2.89478 1.18663,-1.44073 -1.84733,-5.64137 -4.24845,-2.89478 z"
       style="fill:none;fill-rule:evenodd;stroke:#ffffff;stroke-width:2.59899998;stroke-linecap:butt;stroke-linejoin:miter;stroke-miterlimit:4;stroke-dasharray:none;stroke-opacity:1" />
    <path
       id="path6016"
       d="m 465.93287,392.99656 c 9.77599,23.79747 4.0296,16.51384 17.93021,-2.0203"
       style="fill:none;fill-rule:evenodd;stroke:#ffffff;stroke-width:2.59899998;stroke-linecap:butt;stroke-linejoin:miter;stroke-miterlimit:4;stroke-dasharray:none;stroke-opacity:1" />
    <path
       id="path5984-1"
       d="m 512.16294,383.70053 c 7.20578,1.26065 15.05281,-0.35978 22.14286,-0.71429"
       style="fill:none;fill-rule:evenodd;stroke:#ffffff;stroke-width:2.59899998;stroke-linecap:butt;stroke-linejoin:miter;stroke-miterlimit:4;stroke-dasharray:none;stroke-opacity:1" />
    <path
       id="path6036"
       d="m 448.91806,404.20956 c -16.09662,17.44626 -11.42857,-18.87819 -11.42857,-30.35715"
       style="fill:none;fill-rule:evenodd;stroke:#ffffff;stroke-width:2.59899998;stroke-linecap:butt;stroke-linejoin:miter;stroke-miterlimit:4;stroke-dasharray:none;stroke-opacity:1" />
    <path
       id="path6038"
       d="m 526.41806,403.35241 c -10.99824,11.15622 -6.07142,-21.88211 -6.07142,-32.85714"
       style="fill:none;fill-rule:evenodd;stroke:#ffffff;stroke-width:2.59899998;stroke-linecap:butt;stroke-linejoin:miter;stroke-miterlimit:4;stroke-dasharray:none;stroke-opacity:1" />
    <path
       id="path5676-0-5"
       d="m 182.64859,392.14216 c -0.13064,0.078 7.46633,-1.61217 -0.38718,0.23402 -12.55632,2.95173 -9.59395,15.99596 6.77305,15.14901"
       style="fill:none;fill-rule:evenodd;stroke:#2a2a2a;stroke-width:2.11800003;stroke-linecap:round;stroke-linejoin:round;stroke-miterlimit:4;stroke-dasharray:none;stroke-opacity:1" />
    <path
       id="path5708-1-0"
       d="m 150.54082,394.43937 c -10.29475,3.75126 -4.0321,15.01916 3.10038,12.6254 6.77866,-2.27503 1.46061,-14.68556 -3.10038,-12.6254 z"
       style="fill:none;fill-rule:evenodd;stroke:#2a2a2a;stroke-width:2.11800003;stroke-linecap:round;stroke-linejoin:round;stroke-miterlimit:4;stroke-dasharray:none;stroke-opacity:1" />
    <path
       id="path5710-5-9"
       d="m 156.43056,392.97246 c -1.20883,9.35155 3.07112,13.69988 8.33179,13.04777"
       style="fill:none;fill-rule:evenodd;stroke:#2a2a2a;stroke-width:2.11800003;stroke-linecap:round;stroke-linejoin:round;stroke-miterlimit:4;stroke-dasharray:none;stroke-opacity:1" />
    <path
       id="path5720-4-1-8"
       d="m 256.51701,401.65023 c 4.4329,0.19938 14.25434,-1.21917 17.04342,-1.21917 -6.26158,-20.32817 -35.84401,6.70745 -1.76329,9.96627"
       style="fill:none;fill-rule:evenodd;stroke:#2a2a2a;stroke-width:2.11800003;stroke-linecap:round;stroke-linejoin:round;stroke-miterlimit:4;stroke-dasharray:none;stroke-opacity:1" />
    <path
       id="path5984-2"
       d="m 194.09453,379.93726 c 4.56214,1.32384 9.53026,-0.37782 14.01913,-0.7501"
       style="fill:none;fill-rule:evenodd;stroke:#2a2a2a;stroke-width:1.72699618;stroke-linecap:butt;stroke-linejoin:miter;stroke-miterlimit:4;stroke-dasharray:none;stroke-opacity:1" />
    <path
       id="path5994-5"
       d="m 221.23991,395.89569 c 1.04314,6.73361 0.87073,10.62684 3.39286,13.21429"
       style="fill:none;fill-rule:evenodd;stroke:#2a2a2a;stroke-width:2.11800003;stroke-linecap:butt;stroke-linejoin:miter;stroke-miterlimit:4;stroke-dasharray:none;stroke-opacity:1" />
    <path
       id="path6000-8"
       d="m 218.84191,389.03945 c -1.33116,3.00839 3.32011,4.02192 4.24845,2.89478 1.18663,-1.44073 -1.84733,-5.64137 -4.24845,-2.89478 z"
       style="fill:none;fill-rule:evenodd;stroke:#2a2a2a;stroke-width:2.11800003;stroke-linecap:butt;stroke-linejoin:miter;stroke-miterlimit:4;stroke-dasharray:none;stroke-opacity:1" />
    <path
       id="path6016-9"
       d="m 230.18329,395.78984 c 9.77599,23.79747 4.0296,16.51384 17.93021,-2.0203"
       style="fill:none;fill-rule:evenodd;stroke:#2a2a2a;stroke-width:2.11800003;stroke-linecap:butt;stroke-linejoin:miter;stroke-miterlimit:4;stroke-dasharray:none;stroke-opacity:1" />
    <path
       id="path6036-5"
       d="M 213.16848,403.00284 C 197.07186,420.4491 201.73991,384.12465 201.73991,372.64569"
       style="fill:none;fill-rule:evenodd;stroke:#2a2a2a;stroke-width:2.11800003;stroke-linecap:butt;stroke-linejoin:miter;stroke-miterlimit:4;stroke-dasharray:none;stroke-opacity:1" />
    <path
       id="path5994-5-3"
       d="m 103.91337,388.55751 c 0.98628,9.07613 1.32978,14.32376 -1.68836,18.53343"
       style="fill:none;fill-rule:evenodd;stroke:#2a2a2a;stroke-width:2.3910048;stroke-linecap:butt;stroke-linejoin:miter;stroke-miterlimit:4;stroke-dasharray:none;stroke-opacity:1" />
    <path
       id="path6000-8-8"
       d="m 99.797981,379.94399 c -1.33116,3.00839 5.592949,6.04223 6.521289,4.91509 1.18663,-1.44073 1.43567,-10.69213 -6.521289,-4.91509 z"
       style="fill:none;fill-rule:evenodd;stroke:#2a2a2a;stroke-width:2.11800003;stroke-linecap:butt;stroke-linejoin:miter;stroke-miterlimit:4;stroke-dasharray:none;stroke-opacity:1" />
    <path
       id="path5642-5"
       d="m 119.87993,384.78984 c 0.53125,6.11159 -0.3985,14.98418 0.39971,20.28772"
       style="fill:none;fill-rule:evenodd;stroke:#2a2a2a;stroke-width:2.5;stroke-linecap:round;stroke-linejoin:round;stroke-miterlimit:4;stroke-dasharray:none;stroke-opacity:1" />
    <path
       id="path5644-1"
       d="m 120.06506,390.07431 c 12.81501,-9.35452 12.76652,5.70042 13.19856,14.76561"
       style="fill:none;fill-rule:evenodd;stroke:#2a2a2a;stroke-width:2.5;stroke-linecap:round;stroke-linejoin:round;stroke-miterlimit:4;stroke-dasharray:none;stroke-opacity:1" />
  </g>
</svg>
