<?xml version="1.0" encoding="UTF-8" standalone="no"?>
<svg
   xmlns:dc="http://purl.org/dc/elements/1.1/"
   xmlns:cc="http://creativecommons.org/ns#"
   xmlns:rdf="http://www.w3.org/1999/02/22-rdf-syntax-ns#"
   xmlns:svg="http://www.w3.org/2000/svg"
   xmlns="http://www.w3.org/2000/svg"
   version="1.1"
   id="svg2"
   viewBox="0 0 530.8597 1064.155"
   height="300.32819mm"
   width="149.8204mm">
  <defs
     id="defs4" />
  <metadata
     id="metadata7">
    <rdf:RDF>
      <cc:Work
         rdf:about="">
        <dc:format>image/svg+xml</dc:format>
        <dc:type
           rdf:resource="http://purl.org/dc/dcmitype/StillImage" />
        <dc:title></dc:title>
      </cc:Work>
    </rdf:RDF>
  </metadata>
  <g
     style="opacity:1"
     transform="translate(-47.239651,310.35647)"
     id="layer1">
    <path
       id="path4149"
       d="m 89.4043,505.46275 -0.436798,52.19401 463.021138,11.70221 c 27.33594,0.51571 25.25343,-50.50138 -1.0228,-51.47552 z"
       style="fill:#ff0000;fill-opacity:1;fill-rule:evenodd;stroke:#000000;stroke-width:0.75134623px;stroke-linecap:butt;stroke-linejoin:miter;stroke-opacity:1" />
    <path
       id="path4156"
       d="m 89.008387,557.68181 c -31.669156,-0.69219 -16.637956,-53.18195 0.519784,-52.15986 27.615479,0.9468 26.440199,53.4682 -0.519784,52.15986 z"
       style="fill:#ffffff;fill-opacity:1;fill-rule:evenodd;stroke:#000000;stroke-width:0.71427369px;stroke-linecap:butt;stroke-linejoin:bevel;stroke-opacity:1" />
    <path
       id="path4173"
       d="m 77.194925,511.27868 24.485355,0.81465"
       style="opacity:0;fill:none;fill-rule:evenodd;stroke:#000000;stroke-width:0.76986015px;stroke-linecap:butt;stroke-linejoin:miter;stroke-opacity:1" />
    <path
       id="path4175"
       d="m 74.781515,514.87402 29.435225,0.97933"
       style="opacity:0;fill:none;fill-rule:evenodd;stroke:#000000;stroke-width:0.73397505px;stroke-linecap:butt;stroke-linejoin:miter;stroke-opacity:1" />
    <path
       id="path4177"
       d="m 72.19055,520.08187 34.40709,1.14474"
       style="opacity:0;fill:none;fill-rule:evenodd;stroke:#000000;stroke-width:0.72311938px;stroke-linecap:butt;stroke-linejoin:miter;stroke-opacity:1" />
    <path
       id="path4179"
       d="m 69.475663,528.90626 38.718977,1.28823"
       style="opacity:0;fill:none;fill-rule:evenodd;stroke:#000000;stroke-width:0.72680879px;stroke-linecap:butt;stroke-linejoin:miter;stroke-opacity:1" />
    <path
       id="path4183"
       d="m 69.051789,537.6976 38.103001,1.26772"
       style="opacity:0;fill:none;fill-rule:evenodd;stroke:#000000;stroke-width:0.72680879px;stroke-linecap:butt;stroke-linejoin:miter;stroke-opacity:1" />
    <path
       id="path4185"
       d="m 70.366001,545.7607 34.187099,1.13741"
       style="opacity:0;fill:none;fill-rule:evenodd;stroke:#000000;stroke-width:0.74576586px;stroke-linecap:butt;stroke-linejoin:miter;stroke-opacity:1" />
    <path
       id="path4187"
       d="m 72.271936,549.95122 29.922874,0.99556"
       style="opacity:0;fill:none;fill-rule:evenodd;stroke:#000000;stroke-width:0.80673647px;stroke-linecap:butt;stroke-linejoin:miter;stroke-opacity:1" />
    <path
       id="path4189"
       d="m 80.457332,508.03055 17.555538,0.58406"
       style="opacity:0;fill:none;fill-rule:evenodd;stroke:#000000;stroke-width:0.76945215px;stroke-linecap:butt;stroke-linejoin:miter;stroke-opacity:1" />
    <path
       id="path4191"
       d="m 75.595173,553.72306 22.762275,0.75732"
       style="opacity:0;fill:none;fill-rule:evenodd;stroke:#000000;stroke-width:0.8204354px;stroke-linecap:butt;stroke-linejoin:miter;stroke-opacity:1" />
    <path
       id="path4205"
       d="m 363.86982,941.57163 6.26085,-433.62633 c -2.01771,-16.67585 -19.90484,-17.10247 -26.37161,-8.9932 -3.32752,5.40483 -3.32465,13.14375 -3.05835,13.22045 0.76152,0.21935 7.42904,-0.34455 7.23462,4.70454 l -7.21938,425.02421 z"
       style="fill:#ffffff;fill-opacity:1;fill-rule:evenodd;stroke:#000000;stroke-width:0.87081599px;stroke-linecap:butt;stroke-linejoin:miter;stroke-opacity:1" />
    <path
       id="path4195"
       d="M 411.06277,-416.95471 393.00634,543.4707 c 0.21694,18.10582 -2.25811,22.47956 7.46969,22.18795 -1.60285,22.22336 -29.3176,20.77357 -30.95043,0.33034 l 16.01518,-983.32603 z"
       style="fill:#ffffff;fill-opacity:1;fill-rule:evenodd;stroke:#000000;stroke-width:0.87081599px;stroke-linecap:butt;stroke-linejoin:miter;stroke-opacity:1" />
    <path
       id="path4213"
       d="m 411.36113,514.61523 c 16.1376,-14.10029 -4.96859,-32.74427 -20.84512,-15.61997 l -61.02565,65.74492 c -7.22417,9.91006 6.74565,23.04316 17.1014,14.66293 z"
       style="fill:#ffffff;fill-opacity:1;fill-rule:evenodd;stroke:#000000;stroke-width:0.87081599px;stroke-linecap:butt;stroke-linejoin:miter;stroke-opacity:1" />
    <g
       transform="translate(6,0)"
       id="g6010">
      <path
         style="fill:#ff0000;fill-opacity:1;fill-rule:evenodd;stroke:#ffffff;stroke-width:3;stroke-linecap:round;stroke-linejoin:round;stroke-miterlimit:4;stroke-dasharray:none;stroke-opacity:1"
         d="m 186.93273,518.91233 c -24.98813,-3.80877 -18.80985,9.87954 -9.4988,13.78238 18.84846,7.90057 1.28434,20.41452 -11.04202,11.62345"
         id="path4148" />
      <path
         style="fill:#ff0000;fill-opacity:1;fill-rule:evenodd;stroke:#ffffff;stroke-width:2.87965178;stroke-linecap:round;stroke-linejoin:round;stroke-miterlimit:4;stroke-dasharray:none;stroke-opacity:1"
         d="m 210.4919,518.62555 c -9.35526,0.11843 -14.29149,11.16622 -13.07398,18.06403 2.88206,16.32822 19.49895,13.581 22.96985,5.90819 4.39333,-9.71197 -0.56708,-24.15634 -9.89587,-23.97222 z"
         id="path4150" />
      <path
         style="fill:#ff0000;fill-opacity:1;fill-rule:evenodd;stroke:#ffffff;stroke-width:2.79386497;stroke-linecap:round;stroke-linejoin:round;stroke-miterlimit:4;stroke-dasharray:none;stroke-opacity:1"
         d="m 233.52848,549.5918 c 0.40067,-15.68754 1.33886,-24.16111 4.40675,-28.24067 3.23871,-4.30671 10.6654,-3.35269 12.77625,0.56039 2.93643,5.44354 4.88875,17.0151 3.33354,29.08799"
         id="path4152" />
      <path
         style="fill:#ff0000;fill-opacity:1;fill-rule:evenodd;stroke:#ffffff;stroke-width:2.92535925;stroke-linecap:round;stroke-linejoin:round;stroke-miterlimit:4;stroke-dasharray:none;stroke-opacity:1"
         d="m 234.64038,536.66072 c 10.66788,0.59747 15.69732,0.46971 18.31153,0.19937"
         id="path4154" />
    </g>
    <g
       transform="matrix(0.63856758,-0.6562738,0.70802318,0.59189471,-180.24834,325.12031)"
       id="g5642">
      <path
         style="fill:none;fill-rule:evenodd;stroke:#000000;stroke-width:2;stroke-linecap:round;stroke-linejoin:round;stroke-miterlimit:4;stroke-dasharray:none;stroke-opacity:1"
         d="m 186.3959,597.3332 c 0,-2.62698 -0.01,-9.72081 -0.39062,-14.81095 11.33125,-0.17167 8.30884,8.58788 0.36693,7.30545 3.55396,3.34308 4.09277,4.3144 7.06238,7.18024"
         id="path4157" />
      <path
         style="fill:none;fill-rule:evenodd;stroke:#000000;stroke-width:2;stroke-linecap:round;stroke-linejoin:round;stroke-miterlimit:4;stroke-dasharray:none;stroke-opacity:1"
         d="m 209.93358,595.88308 c -4.4436,0.43429 -8.89636,1.24954 -9.59684,-0.50374 -1.0372,-2.59607 -0.41746,-7.50671 0.32746,-12.73254 2.72742,-0.1552 4.91661,0.0638 7.70688,0.20265"
         id="path4163" />
      <path
         style="fill:none;fill-rule:evenodd;stroke:#000000;stroke-width:2;stroke-linecap:round;stroke-linejoin:round;stroke-miterlimit:4;stroke-dasharray:none;stroke-opacity:1"
         d="m 199.7516,589.041 7.34876,0.20716"
         id="path4165" />
      <path
         style="fill:none;fill-rule:evenodd;stroke:#000000;stroke-width:2;stroke-linecap:round;stroke-linejoin:round;stroke-miterlimit:4;stroke-dasharray:none;stroke-opacity:1"
         d="m 223.17538,583.30526 c -9.75287,-1.99272 -11.02184,6.13465 -4.46845,6.38456 9.79692,0.3736 4.84606,10.53425 -4.59371,4.43125"
         id="path4169" />
      <path
         style="fill:none;fill-rule:evenodd;stroke:#000000;stroke-width:2;stroke-linecap:round;stroke-linejoin:round;stroke-miterlimit:4;stroke-dasharray:none;stroke-opacity:1"
         d="m 235.21049,583.33844 c 0.51511,4.64045 0.25047,9.50779 0,13.95222"
         id="path4171" />
      <path
         style="fill:none;fill-rule:evenodd;stroke:#000000;stroke-width:2;stroke-linecap:round;stroke-linejoin:round;stroke-miterlimit:4;stroke-dasharray:none;stroke-opacity:1"
         d="m 228.17651,583.00047 13.76953,0"
         id="path4174" />
    </g>
    <g
       transform="matrix(1.380181,0,0,1.380181,-90.891832,-207.49277)"
       style="opacity:0.98999999;stroke-width:1;stroke-miterlimit:4;stroke-dasharray:none"
       id="g6002">
      <path
         style="fill:none;fill-rule:evenodd;stroke:#ffffff;stroke-width:1;stroke-linecap:round;stroke-linejoin:round;stroke-miterlimit:4;stroke-dasharray:none;stroke-opacity:1"
         d="m 271.89785,543.00761 c -5.62023,1.50941 -3.36732,7.36941 0.3418,7.17773 7.19926,-0.37203 2.74885,-7.60986 -0.3418,-7.17773 z"
         id="path5974" />
      <path
         style="fill:none;fill-rule:evenodd;stroke:#ffffff;stroke-width:1;stroke-linecap:round;stroke-linejoin:round;stroke-miterlimit:4;stroke-dasharray:none;stroke-opacity:1"
         d="m 276.1459,542.37285 c 0.0307,2.18768 0.15498,11.07586 3.07617,5.85937"
         id="path5976" />
      <path
         style="fill:none;fill-rule:evenodd;stroke:#ffffff;stroke-width:1;stroke-linecap:round;stroke-linejoin:round;stroke-miterlimit:4;stroke-dasharray:none;stroke-opacity:1"
         d="m 280.58926,543.1541 c 1.13833,2.20546 0.68446,5.09801 0.78125,7.32422"
         id="path5978" />
      <path
         style="fill:none;fill-rule:evenodd;stroke:#ffffff;stroke-width:1;stroke-linecap:round;stroke-linejoin:round;stroke-miterlimit:4;stroke-dasharray:none;stroke-opacity:1"
         d="m 281.46817,547.20683 c 2.47164,-8.10156 6.54296,-1.5641 6.54296,3.32031"
         id="path5980" />
      <path
         style="fill:none;fill-rule:evenodd;stroke:#ffffff;stroke-width:1;stroke-linecap:round;stroke-linejoin:round;stroke-miterlimit:4;stroke-dasharray:none;stroke-opacity:1"
         d="m 294.7992,550.02185 c 4.84562,0.49782 4.12016,-6.57616 -0.51899,-6.65593 -2.34796,-0.081 -4.92302,6.09682 0.51899,6.65593 z"
         id="path5982" />
      <path
         style="fill:none;fill-rule:evenodd;stroke:#ffffff;stroke-width:1;stroke-linecap:round;stroke-linejoin:round;stroke-miterlimit:4;stroke-dasharray:none;stroke-opacity:1"
         d="m 301.69839,548.37992 c -5.86646,7.03458 -2.62296,-10.97333 -3.45694,-17.18149"
         id="path5984" />
    </g>
  </g>
</svg>
