<?xml version="1.0" encoding="UTF-8" standalone="no"?>
<svg
   xmlns:dc="http://purl.org/dc/elements/1.1/"
   xmlns:cc="http://creativecommons.org/ns#"
   xmlns:rdf="http://www.w3.org/1999/02/22-rdf-syntax-ns#"
   xmlns:svg="http://www.w3.org/2000/svg"
   xmlns="http://www.w3.org/2000/svg"
   version="1.1"
   id="svg2"
   viewBox="0 0 1052.3622 744.09448"
   height="210mm"
   width="297mm">
  <defs
     id="defs4" />
  <metadata
     id="metadata7">
    <rdf:RDF>
      <cc:Work
         rdf:about="">
        <dc:format>image/svg+xml</dc:format>
        <dc:type
           rdf:resource="http://purl.org/dc/dcmitype/StillImage" />
        <dc:title></dc:title>
      </cc:Work>
    </rdf:RDF>
  </metadata>
  <g
     transform="translate(0,-308.26772)"
     id="layer1">
    <path
       id="path4561"
       d="m 477.5,815.21934 c 52.12919,-7.8583 108.22839,0.71429 160.71429,0.71429 1.16483,14.11833 2.14285,28.60676 2.14285,43.57143 0,19.39601 4.43953,51.12095 -3.57142,67.14286 -1.24308,2.48615 -115.38468,4.28571 -128.21429,4.28571 -4.28223,0 -25.81166,1.94811 -27.85714,-2.14286 C 467.65838,902.67895 475.24734,842.25141 477.5,815.21934 Z"
       style="fill:none;fill-rule:evenodd;stroke:#000000;stroke-width:3.5;stroke-linecap:butt;stroke-linejoin:miter;stroke-opacity:1;stroke-miterlimit:4;stroke-dasharray:none" />
    <path
       id="path4565"
       d="m 475,913.07649 c 54.0906,-3.97343 114.68953,4.63897 166.07143,0.35714"
       style="fill:none;fill-rule:evenodd;stroke:#000000;stroke-width:3.5;stroke-linecap:butt;stroke-linejoin:miter;stroke-opacity:1;stroke-miterlimit:4;stroke-dasharray:none" />
    <path
       id="path4573"
       d="m 486.07143,823.64792 c 21.54837,1.77718 43.19868,1.42857 65,1.42857 14.41308,0 66.72568,-6.45859 76.78572,-1.42857 0.74394,0.37197 4.29957,77.48613 1.78571,80 -7.99329,7.99329 -101.33896,1.78571 -115.71428,1.78571 -3.11479,0 -25.06686,0.22344 -26.07143,-1.78571 -11.67408,-23.34815 -1.78572,-54.37259 -1.78572,-80 z"
       style="fill:none;fill-rule:evenodd;stroke:#000000;stroke-width:3.5;stroke-linecap:butt;stroke-linejoin:miter;stroke-opacity:1;stroke-miterlimit:4;stroke-dasharray:none" />
    <path
       id="path4579"
       d="m 547.85714,931.29077 c 5.41238,6.30558 4.68058,23.50815 -4.89538,27.86086"
       style="fill:none;fill-rule:evenodd;stroke:#000000;stroke-width:3.5;stroke-linecap:round;stroke-linejoin:miter;stroke-miterlimit:4;stroke-dasharray:none;stroke-opacity:1" />
    <path
       id="path4581"
       d="m 574.64286,930.57649 c -3.02514,11.24368 -1.3888,21.82223 5.53571,28.83928"
       style="fill:none;fill-rule:evenodd;stroke:#000000;stroke-width:3.5;stroke-linecap:round;stroke-linejoin:miter;stroke-miterlimit:4;stroke-dasharray:none;stroke-opacity:1" />
    <path
       id="path4585"
       d="m 541.0931,967.17094 c 0,-3.5688 0.30306,-4.05861 1.95344,-7.68382 12.07127,0.7376 24.74637,1.26119 37.23926,0.33285 0.90493,1.8954 0.69251,4.22394 0.11467,7.59267"
       style="fill:none;fill-rule:evenodd;stroke:#000000;stroke-width:3.5;stroke-linecap:round;stroke-linejoin:miter;stroke-miterlimit:4;stroke-dasharray:none;stroke-opacity:1" />
    <path
       id="path4587"
       d="m 541.17789,967.63455 39.01151,0.0415"
       style="fill:none;fill-rule:evenodd;stroke:#000000;stroke-width:3.5;stroke-linecap:round;stroke-linejoin:miter;stroke-miterlimit:4;stroke-dasharray:none;stroke-opacity:1" />
    <path
       id="path4589"
       d="m 510.71429,972.00506 c 6.09632,-6.97188 11.53163,-13.0762 18.48214,-18.48215 5.32603,-0.14622 15.11574,0.55353 19.04138,0.22639"
       style="fill:none;fill-rule:evenodd;stroke:#000000;stroke-width:3.5;stroke-linecap:butt;stroke-linejoin:miter;stroke-miterlimit:4;stroke-dasharray:none;stroke-opacity:1" />
    <path
       id="path4591"
       d="m 576.33929,953.25506 c 5.95003,0.19061 16.95065,-0.6187 22.23214,-0.17857"
       style="fill:none;fill-rule:evenodd;stroke:#000000;stroke-width:3.5;stroke-linecap:round;stroke-linejoin:miter;stroke-miterlimit:4;stroke-dasharray:none;stroke-opacity:1" />
    <path
       id="path4593"
       d="m 510.58802,971.66958 c -0.96646,4.56584 0.57012,7.65175 2.26912,11.04977 32.8055,0.1752 66.68961,3.07348 99.28572,0.35714"
       style="fill:none;fill-rule:evenodd;stroke:#000000;stroke-width:3.5;stroke-linecap:butt;stroke-linejoin:miter;stroke-miterlimit:4;stroke-dasharray:none;stroke-opacity:1" />
    <path
       id="path4597"
       d="m 598.21429,952.71935 c 5.80997,7.02687 12.36867,11.97468 14.28571,19.64285"
       style="fill:none;fill-rule:evenodd;stroke:#000000;stroke-width:3.5;stroke-linecap:butt;stroke-linejoin:miter;stroke-opacity:1;stroke-miterlimit:4;stroke-dasharray:none" />
    <path
       id="path4601"
       d="m 611.78572,970.57649 c -33.34118,3.94001 -67.53315,1.25898 -101.11104,1.25898"
       style="fill:none;fill-rule:evenodd;stroke:#000000;stroke-width:3.5;stroke-linecap:round;stroke-linejoin:miter;stroke-miterlimit:4;stroke-dasharray:none;stroke-opacity:1" />
    <path
       id="path4603"
       d="m 612.32143,972.00507 c 0.684,3.75227 1.68871,7.9447 -0.625,11.24999"
       style="fill:none;fill-rule:evenodd;stroke:#000000;stroke-width:3.5;stroke-linecap:round;stroke-linejoin:miter;stroke-opacity:1;stroke-miterlimit:4;stroke-dasharray:none" />
    <path
       id="path4613"
       d="m 514.79455,842.90212 c -11.54275,1.07767 5.05077,14.98066 5.05077,2.52538 0,-2.51419 -2.98822,-2.20806 -5.05077,-2.52538 z"
       style="fill:none;fill-rule:evenodd;stroke:#000000;stroke-width:2;stroke-linecap:butt;stroke-linejoin:miter;stroke-opacity:1;stroke-miterlimit:4;stroke-dasharray:none" />
    <path
       id="path4631"
       d="m 596.24698,841.7657 c -18.07518,-0.52363 4.54569,19.22991 4.54569,4.16688 0,-3.40824 -1.91009,-3.06871 -4.54569,-4.16688 z"
       style="fill:none;fill-rule:evenodd;stroke:#000000;stroke-width:2;stroke-linecap:butt;stroke-linejoin:miter;stroke-opacity:1;stroke-miterlimit:4;stroke-dasharray:none" />
    <path
       id="path4633"
       d="m 555.35714,857.00506 c -7.27756,7.17808 -7.51533,13.02316 3.92858,12.14286"
       style="fill:none;fill-rule:evenodd;stroke:#000000;stroke-width:2;stroke-linecap:round;stroke-linejoin:miter;stroke-opacity:1;stroke-miterlimit:4;stroke-dasharray:none" />
    <path
       id="path4635"
       d="m 521.78572,879.14792 c 15.32837,18.37512 57.53925,13.86127 70,-7.5"
       style="fill:none;fill-rule:evenodd;stroke:#000000;stroke-width:2;stroke-linecap:round;stroke-linejoin:miter;stroke-opacity:1;stroke-miterlimit:4;stroke-dasharray:none" />
    <path
       id="path4878"
       d="m 790.18917,485.34552 c 2.40136,7.96521 0.92444,26.79098 -4.44608,23.04482 -11.14062,-5.48473 0.93755,-13.48515 9.87401,-20.66813"
       style="fill:none;fill-rule:evenodd;stroke:#ff0000;stroke-width:2.4000001;stroke-linecap:round;stroke-linejoin:miter;stroke-miterlimit:4;stroke-dasharray:none;stroke-opacity:1" />
    <path
       id="path4661"
       d="m 776.2333,415.44434 c -17.64136,-11.75334 -80.0002,-27.10124 -109.09647,4.04061 -20.86801,22.15019 -23.00673,148.75779 2.42821,167.22666 24.3958,16.13782 108.5848,12.50983 123.23861,-9.09137 21.87919,-44.29049 10.80313,-137.71995 -16.57035,-162.1759 z"
       style="fill:none;fill-rule:evenodd;stroke:#000000;stroke-width:3.5;stroke-linecap:butt;stroke-linejoin:miter;stroke-miterlimit:4;stroke-dasharray:none;stroke-opacity:1" />
    <path
       id="path4788"
       d="m 320.56502,447.93153 c 3.36156,15.26612 5.4566,30.38442 4.58354,46.20611"
       style="fill:none;fill-rule:evenodd;stroke:#ff0000;stroke-width:2.4;stroke-linecap:round;stroke-linejoin:miter;stroke-miterlimit:4;stroke-dasharray:none;stroke-opacity:1" />
    <path
       id="path4800"
       d="m 299.69596,511.18526 c 0.0194,7.54763 -0.39219,21.2387 -0.56721,25.49049"
       style="fill:none;fill-rule:evenodd;stroke:#ff0000;stroke-width:2.4000001;stroke-linecap:round;stroke-linejoin:miter;stroke-miterlimit:4;stroke-dasharray:none;stroke-opacity:1" />
    <path
       id="path4661-4"
       d="m 407.40699,575.16625 c -16.23449,11.70592 -73.62033,31.26032 -115.51465,-1.1787 -19.20383,-22.06082 -4.73892,-136.77515 18.66763,-155.16951 22.45028,-16.07271 85.46427,-15.30497 98.94947,6.20908 20.13436,44.1118 10.59891,139.29852 -2.10245,150.13913 z"
       style="fill:none;fill-rule:evenodd;stroke:#000000;stroke-width:3.35076165;stroke-linecap:butt;stroke-linejoin:miter;stroke-miterlimit:4;stroke-dasharray:none;stroke-opacity:1" />
    <path
       id="path4680"
       d="m 360,613.79077 c -8.45587,77.67965 -48.6701,237.13793 65.71429,242.85715"
       style="fill:none;fill-rule:evenodd;stroke:#000000;stroke-width:3;stroke-linecap:round;stroke-linejoin:miter;stroke-opacity:1;stroke-miterlimit:4;stroke-dasharray:none" />
    <path
       id="path4684"
       d="M 435.71429,890.93363 C 278.04301,905.66398 310.36677,727.65839 328.57143,612.36221"
       style="fill:none;fill-rule:evenodd;stroke:#000000;stroke-width:3;stroke-linecap:round;stroke-linejoin:miter;stroke-opacity:1;stroke-miterlimit:4;stroke-dasharray:none" />
    <path
       id="path4698"
       d="m 663.4969,853.08731 c 107.49815,7.64297 69.67582,-164.49981 62.24078,-235.13275"
       style="fill:none;fill-rule:evenodd;stroke:#000000;stroke-width:3;stroke-linecap:round;stroke-linejoin:miter;stroke-opacity:1;stroke-miterlimit:4;stroke-dasharray:none" />
    <path
       id="path4702"
       d="M 660.63976,884.67688 C 824.07753,878.1768 764.29999,730.03164 758.65429,617.11771"
       style="fill:none;fill-rule:evenodd;stroke:#000000;stroke-width:3;stroke-linecap:round;stroke-linejoin:miter;stroke-opacity:1;stroke-miterlimit:4;stroke-dasharray:none" />
    <path
       id="path4710"
       d="m 315.30284,631.62623 c 16.23318,-23.79106 10.77399,-28.63239 23.73858,-1.26269"
       style="fill:none;fill-rule:evenodd;stroke:#000000;stroke-width:3;stroke-linecap:round;stroke-linejoin:miter;stroke-opacity:1;stroke-miterlimit:4;stroke-dasharray:none" />
    <path
       id="path4740"
       d="m 719.61985,641.11065 c 6.10071,-34.02539 3.84147,-29.45084 20.20305,0"
       style="fill:none;fill-rule:evenodd;stroke:#000000;stroke-width:3;stroke-linecap:round;stroke-linejoin:miter;stroke-opacity:1;stroke-miterlimit:4;stroke-dasharray:none" />
    <path
       id="path4754"
       d="m 401.42858,841.64791 c 38.50439,14.0295 28.88042,20.49549 -5.71429,22.14286"
       style="fill:none;fill-rule:evenodd;stroke:#000000;stroke-width:3;stroke-linecap:round;stroke-linejoin:miter;stroke-opacity:1;stroke-miterlimit:4;stroke-dasharray:none" />
    <path
       id="path4756"
       d="m 671.4989,874.82789 c -21.33588,12.09545 -8.81333,13.59165 9.09138,17.1726"
       style="fill:none;fill-rule:evenodd;stroke:#000000;stroke-width:3;stroke-linecap:round;stroke-linejoin:miter;stroke-opacity:1;stroke-miterlimit:4;stroke-dasharray:none" />
    <path
       id="path4790"
       d="m 309.21528,449.35326 c 58.81458,-9.56368 56.49353,49.36161 -2.18264,46.44307"
       style="fill:none;fill-rule:evenodd;stroke:#ff0000;stroke-width:2.4000001;stroke-linecap:round;stroke-linejoin:miter;stroke-miterlimit:4;stroke-dasharray:none;stroke-opacity:1" />
    <path
       id="path4794"
       d="m 362.43283,471.73642 c -8.35039,9.25486 -1.48707,21.46307 8.98184,16.73136 10.49458,-4.74331 1.85053,-22.66461 -8.98184,-16.73136 z"
       style="fill:none;fill-rule:evenodd;stroke:#ff0000;stroke-width:2.4000001;stroke-linecap:round;stroke-linejoin:miter;stroke-miterlimit:4;stroke-dasharray:none;stroke-opacity:1" />
    <path
       id="path4796"
       d="m 385.41417,480.03186 c 3.57112,-0.20533 9.49747,-0.80656 11.6083,0.26187"
       style="fill:none;fill-rule:evenodd;stroke:#ff0000;stroke-width:2.4000001;stroke-linecap:round;stroke-linejoin:miter;stroke-miterlimit:4;stroke-dasharray:none;stroke-opacity:1" />
    <path
       id="path4802"
       d="m 299.69596,520.8303 c 6.26363,-20.96864 20.62917,-4.99062 15.315,14.81204"
       style="fill:none;fill-rule:evenodd;stroke:#ff0000;stroke-width:2.4000001;stroke-linecap:round;stroke-linejoin:miter;stroke-miterlimit:4;stroke-dasharray:none;stroke-opacity:1" />
    <path
       id="path4804"
       d="m 314.44374,516.69672 c 11.91079,-12.63386 16.44944,0.88972 14.18055,18.60117"
       style="fill:none;fill-rule:evenodd;stroke:#ff0000;stroke-width:2.4000001;stroke-linecap:round;stroke-linejoin:miter;stroke-miterlimit:4;stroke-dasharray:none;stroke-opacity:1" />
    <path
       id="path4828"
       d="m 336.53873,518.95648 c -5.30052,25.22095 25.58472,18.59895 11.102,-3.39518 -3.82997,-5.5834 -9.67002,-4.65681 -11.102,3.39518 z"
       style="fill:none;fill-rule:evenodd;stroke:#ff0000;stroke-width:2.4000001;stroke-linecap:round;stroke-linejoin:miter;stroke-miterlimit:4;stroke-dasharray:none;stroke-opacity:1" />
    <path
       id="path4830"
       d="m 351.59679,513.25204 c -0.61553,13.38006 1.05931,18.18791 6.80666,19.29011"
       style="fill:none;fill-rule:evenodd;stroke:#ff0000;stroke-width:2.4000001;stroke-linecap:round;stroke-linejoin:miter;stroke-miterlimit:4;stroke-dasharray:none;stroke-opacity:1" />
    <path
       id="path4832"
       d="m 368.51613,514.8317 c 1.26919,8.32533 -0.22327,12.42535 1.32909,16.23168"
       style="fill:none;fill-rule:evenodd;stroke:#ff0000;stroke-width:2.4000001;stroke-linecap:round;stroke-linejoin:miter;stroke-miterlimit:4;stroke-dasharray:none;stroke-opacity:1" />
    <path
       id="path4834"
       d="m 366.55727,507.05166 c -2.0316,1.36221 1.14253,5.23313 2.44077,3.51881 1.2019,-1.58713 1.03916,-6.10907 -2.44077,-3.51881 z"
       style="fill:none;fill-rule:evenodd;stroke:#ff0000;stroke-width:2.4000001;stroke-linecap:round;stroke-linejoin:miter;stroke-miterlimit:4;stroke-dasharray:none;stroke-opacity:1" />
    <path
       id="path4836"
       d="m 384.49567,506.36273 c 0.85894,9.84893 0.97163,18.08144 0.79627,25.93585"
       style="fill:none;fill-rule:evenodd;stroke:#ff0000;stroke-width:2.4000001;stroke-linecap:round;stroke-linejoin:miter;stroke-miterlimit:4;stroke-dasharray:none;stroke-opacity:1" />
    <path
       id="path4838"
       d="m 385.00832,513.47472 c 18.89483,-18.20802 16.91532,7.29344 15.96529,17.5224"
       style="fill:none;fill-rule:evenodd;stroke:#ff0000;stroke-width:2.4000001;stroke-linecap:round;stroke-linejoin:miter;stroke-miterlimit:4;stroke-dasharray:none;stroke-opacity:1" />
    <path
       id="path4840"
       d="m 667.77998,456.5571 c 0.34224,11.54178 -0.40387,22.93674 -0.34936,35.04157"
       style="fill:none;fill-rule:evenodd;stroke:#ff0000;stroke-width:2.4000001;stroke-linecap:round;stroke-linejoin:miter;stroke-miterlimit:4;stroke-dasharray:none;stroke-opacity:1" />
    <path
       id="path4842"
       d="m 664.92349,457.41521 c 14.78078,-6.08067 28.02357,14.73295 3.91077,15.28402 6.79603,5.00764 9.75824,10.89509 13.95004,17.74687"
       style="fill:none;fill-rule:evenodd;stroke:#ff0000;stroke-width:2.4000001;stroke-linecap:round;stroke-linejoin:miter;stroke-miterlimit:4;stroke-dasharray:none;stroke-opacity:1" />
    <path
       id="path4846"
       d="m 686.08569,481.91918 11.19587,0.12566 c -0.60511,-5.88735 -7.22829,-7.57735 -9.14436,-5.19358 -2.68049,3.33477 -4.98559,13.59201 9.62204,12.32029"
       style="fill:none;fill-rule:evenodd;stroke:#ff0000;stroke-width:2.4000001;stroke-linecap:round;stroke-linejoin:miter;stroke-miterlimit:4;stroke-dasharray:none;stroke-opacity:1" />
    <path
       id="path4848"
       d="m 703.78539,504.09644 c -0.39815,-8.67732 -1.23362,-17.98884 -0.32618,-26.65819 17.5267,-2.89789 16.51993,15.47994 0,11.01872"
       style="fill:none;fill-rule:evenodd;stroke:#ff0000;stroke-width:2.4000001;stroke-linecap:round;stroke-linejoin:miter;stroke-miterlimit:4;stroke-dasharray:none;stroke-opacity:1" />
    <path
       id="path4850"
       d="m 722.42531,476.68055 c -6.32334,6.3726 4.98086,14.81796 9.09142,12.7431 4.67683,-2.36067 2.14639,-19.25319 -9.09142,-12.7431 z"
       style="fill:none;fill-rule:evenodd;stroke:#ff0000;stroke-width:2.4000001;stroke-linecap:round;stroke-linejoin:miter;stroke-miterlimit:4;stroke-dasharray:none;stroke-opacity:1" />
    <path
       id="path4852"
       d="m 736.74573,480.59042 c 3.76896,-7.68817 5.86931,1.13524 5.27146,10.7175"
       style="fill:none;fill-rule:evenodd;stroke:#ff0000;stroke-width:2.4000001;stroke-linecap:round;stroke-linejoin:miter;stroke-miterlimit:4;stroke-dasharray:none;stroke-opacity:1" />
    <path
       id="path4854"
       d="m 740.92333,479.04668 c 3.45922,0.93247 3.92147,0.48659 6.12169,-1.70884"
       style="fill:none;fill-rule:evenodd;stroke:#ff0000;stroke-width:2.4000001;stroke-linecap:round;stroke-linejoin:miter;stroke-miterlimit:4;stroke-dasharray:none;stroke-opacity:1" />
    <path
       id="path4856"
       d="m 751.90204,462.11409 c 1.31389,10.81748 -4.69941,39.46282 4.84825,24.1123"
       style="fill:none;fill-rule:evenodd;stroke:#ff0000;stroke-width:2.4000001;stroke-linecap:round;stroke-linejoin:miter;stroke-miterlimit:4;stroke-dasharray:none;stroke-opacity:1" />
    <path
       id="path4858"
       d="m 748.29115,468.74761 c 2.50071,0 5.00144,0 7.50216,0"
       style="fill:none;fill-rule:evenodd;stroke:#ff0000;stroke-width:2.4000001;stroke-linecap:round;stroke-linejoin:miter;stroke-miterlimit:4;stroke-dasharray:none;stroke-opacity:1" />
    <path
       id="path4862"
       d="m 762.50003,479.48545 c -0.95842,4.56964 0.53484,9.73367 0.97855,12.79593"
       style="fill:none;fill-rule:evenodd;stroke:#ff0000;stroke-width:2.4000001;stroke-linecap:round;stroke-linejoin:miter;stroke-miterlimit:4;stroke-dasharray:none;stroke-opacity:1" />
    <path
       id="path4864"
       d="m 761.12788,473.30075 c -0.95847,2.66276 1.44397,4.02238 2.40008,2.2814 1.02294,-1.86266 -0.25771,-4.67283 -2.40008,-2.2814 z"
       style="fill:none;fill-rule:evenodd;stroke:#ff0000;stroke-width:2.4000001;stroke-linecap:round;stroke-linejoin:miter;stroke-miterlimit:4;stroke-dasharray:none;stroke-opacity:1" />
    <path
       id="path4868"
       d="m 767.73573,481.94074 c 0.14559,3.91156 1.00313,7.41378 1.63091,10.66327"
       style="fill:none;fill-rule:evenodd;stroke:#ff0000;stroke-width:2.4000001;stroke-linecap:round;stroke-linejoin:miter;stroke-miterlimit:4;stroke-dasharray:none;stroke-opacity:1" />
    <path
       id="path4870"
       d="m 768.3881,485.13972 c 5.90339,-4.65778 8.4407,-3.03364 8.15452,8.08619"
       style="fill:none;fill-rule:evenodd;stroke:#ff0000;stroke-width:2.4000001;stroke-linecap:round;stroke-linejoin:miter;stroke-miterlimit:4;stroke-dasharray:none;stroke-opacity:1" />
    <path
       id="path4884"
       d="m 693.57958,509.53823 c -11.78838,1.34119 -10.77279,5.71201 -10.02724,8.47352 1.34295,4.97428 11.44622,9.26179 12.66774,13.40629 3.73056,12.65742 -11.80354,7.97045 -15.84735,5.59174"
       style="fill:none;fill-rule:evenodd;stroke:#ff0000;stroke-width:2.4000001;stroke-linecap:round;stroke-linejoin:miter;stroke-miterlimit:4;stroke-dasharray:none;stroke-opacity:1" />
    <path
       id="path4892"
       d="m 713.19706,536.97388 c -6.94347,14.66624 -5.71429,-10.04694 -5.71429,-17.85714"
       style="fill:none;fill-rule:evenodd;stroke:#ff0000;stroke-width:2.4000001;stroke-linecap:round;stroke-linejoin:miter;stroke-miterlimit:4;stroke-dasharray:none;stroke-opacity:1" />
    <path
       id="path4894"
       d="m 703.36294,525.37199 c 2.50344,-0.53407 5.17557,-0.23525 7.85714,-0.35714"
       style="fill:none;fill-rule:evenodd;stroke:#ff0000;stroke-width:2.4000001;stroke-linecap:round;stroke-linejoin:miter;stroke-miterlimit:4;stroke-dasharray:none;stroke-opacity:1" />
    <path
       id="path4896"
       d="m 724.54641,533.16786 c -5.5243,1.29079 -4.48717,11.37192 2.17692,6.25021 2.59247,-1.99245 4.10551,-8.08094 -2.17692,-6.25021 z"
       style="fill:none;fill-rule:evenodd;stroke:#ff0000;stroke-width:2.4000001;stroke-linecap:round;stroke-linejoin:miter;stroke-miterlimit:4;stroke-dasharray:none;stroke-opacity:1" />
    <path
       id="path4898"
       d="m 734.77749,535.35611 c 4.6799,-11.78911 6.1297,-0.57772 5.73845,6.3578"
       style="fill:none;fill-rule:evenodd;stroke:#ff0000;stroke-width:2.4000001;stroke-linecap:round;stroke-linejoin:miter;stroke-miterlimit:4;stroke-dasharray:none;stroke-opacity:1" />
    <path
       id="path4906"
       d="m 739.8883,533.00977 c 2.38953,0.11955 3.61645,-2.23377 5.29015,-3.10321"
       style="fill:none;fill-rule:evenodd;stroke:#ff0000;stroke-width:2.4000001;stroke-linecap:round;stroke-linejoin:miter;stroke-miterlimit:4;stroke-dasharray:none;stroke-opacity:1" />
    <path
       id="path4910"
       d="m 751.51795,535.01521 9.62491,-1.01015 c -0.14684,-5.4182 -2.97276,-5.49142 -4.96007,-5.30765 -2.85157,0.26369 -5.11109,2.9001 -4.85985,6.64728 0.20272,3.02352 3.07188,7.98256 9.50742,4.01751"
       style="fill:none;fill-rule:evenodd;stroke:#ff0000;stroke-width:2.4000001;stroke-linecap:round;stroke-linejoin:miter;stroke-miterlimit:4;stroke-dasharray:none;stroke-opacity:1" />
    <path
       id="path4918"
       d="m 775.93958,529.08764 c -7.65174,0.64505 -8.6752,3.49465 -4.76229,6.0741 4.14902,2.7351 7.85228,6.54246 -2.76123,5.31486"
       style="fill:none;fill-rule:evenodd;stroke:#ff0000;stroke-width:2.4000001;stroke-linecap:round;stroke-linejoin:miter;stroke-miterlimit:4;stroke-dasharray:none;stroke-opacity:1" />
    <path
       id="path4864-5"
       d="m 782.52769,483.37396 c -4.64039,4.56739 2.02181,8.069 5.57549,5.29638 6.24084,-4.86916 -2.87329,-8.0775 -5.57549,-5.29638 z"
       style="fill:none;fill-rule:evenodd;stroke:#ff0000;stroke-width:2.4000001;stroke-linecap:round;stroke-linejoin:miter;stroke-miterlimit:4;stroke-dasharray:none;stroke-opacity:1" />
    <path
       id="path4941"
       d="m 788.68802,774.51078 c 6.27345,0.39742 12.47025,-0.20231 18.51939,-1.01285 4.54449,30.40708 -7.51165,57.05124 -23.4327,30.38509"
       style="fill:none;fill-rule:evenodd;stroke:#ff0000;stroke-width:2;stroke-linecap:round;stroke-linejoin:round;stroke-miterlimit:4;stroke-dasharray:none;stroke-opacity:0.69491523" />
    <path
       id="path4945"
       d="m 834.41957,774.00436 c -62.96444,-9.03638 49.22676,61.96935 -19.65322,42.53912"
       style="fill:none;fill-rule:evenodd;stroke:#ff0000;stroke-width:2;stroke-linecap:round;stroke-linejoin:round;stroke-miterlimit:4;stroke-dasharray:none;stroke-opacity:0.69491523" />
    <path
       id="path4949"
       d="m 854.0728,777.04287 c -12.5896,10.60911 -8.26102,58.69042 11.33841,38.99419 12.13576,-12.19572 7.96691,-54.21041 -11.33841,-38.99419 z"
       style="fill:none;fill-rule:evenodd;stroke:#ff0000;stroke-width:2;stroke-linecap:round;stroke-linejoin:round;stroke-miterlimit:4;stroke-dasharray:none;stroke-opacity:0.69491523" />
    <path
       id="path4951"
       d="m 880.90702,779.57496 c 1.98734,11.70355 1.48786,28.98762 -0.37795,38.48777"
       style="fill:none;fill-rule:evenodd;stroke:#ff0000;stroke-width:2;stroke-linecap:round;stroke-linejoin:round;stroke-miterlimit:4;stroke-dasharray:none;stroke-opacity:0.69491523" />
    <path
       id="path4953"
       d="m 880.90702,778.0557 c 8.37981,12.35044 11.92474,28.71804 17.38554,42.53912 -0.32898,-15.19487 1.70208,-29.40732 2.26769,-44.5648"
       style="fill:none;fill-rule:evenodd;stroke:#ff0000;stroke-width:2;stroke-linecap:round;stroke-linejoin:round;stroke-miterlimit:4;stroke-dasharray:none;stroke-opacity:0.69491523" />
    <path
       id="path4957"
       d="m 697.41065,669.06042 c 2.99207,11.45881 1.50406,24.09113 2.14475,35.10106 8.22154,0.97968 16.68903,0.58502 25.02199,0.58502"
       style="fill:none;fill-rule:evenodd;stroke:#ff0000;stroke-width:2;stroke-linecap:round;stroke-linejoin:round;stroke-opacity:0.69491524;stroke-miterlimit:4;stroke-dasharray:none" />
    <path
       id="path4963"
       d="m 672.57998,670.26634 c -18.42757,6.52561 -1.81285,47.36865 14.2553,30.56808 9.45319,-9.88407 -0.0834,-33.84039 -14.2553,-30.56808 z"
       style="fill:none;fill-rule:evenodd;stroke:#ff0000;stroke-width:2;stroke-linecap:round;stroke-linejoin:round;stroke-opacity:0.69491524;stroke-miterlimit:4;stroke-dasharray:none" />
    <path
       id="path4965"
       d="m 682.96943,693.25556 c 3.43572,3.9739 5.85352,7.92879 8.21493,12.12619"
       style="fill:none;fill-rule:evenodd;stroke:#ff0000;stroke-width:2;stroke-linecap:round;stroke-linejoin:round;stroke-opacity:0.69491524;stroke-miterlimit:4;stroke-dasharray:none" />
    <path
       id="path4967"
       d="m 641.89481,705.38175 c -0.48801,-10.7235 -1.53832,-25.66985 -0.48323,-38.39959 10.82166,1.40415 15.91271,6.15168 14.60049,10.39663 -1.37245,4.43982 -9.13754,5.32203 -14.35888,8.92948 8.83918,6.31269 13.57429,10.03129 20.65813,18.4419"
       style="fill:none;fill-rule:evenodd;stroke:#ff0000;stroke-width:2;stroke-linecap:round;stroke-linejoin:round;stroke-opacity:0.69491524;stroke-miterlimit:4;stroke-dasharray:none" />
    <path
       id="path4969"
       d="m 660.8923,710.6781 c -18.37565,-1.75016 -19.89489,5.65816 -19.22343,12.83505 1.14404,12.22815 16.81761,25.22622 25.53688,1.55962 -8.57283,-0.95901 -12.33322,0.15564 -18.94035,-0.50507"
       style="fill:none;fill-rule:evenodd;stroke:#ff0000;stroke-width:2;stroke-linecap:round;stroke-linejoin:round;stroke-opacity:0.69491524;stroke-miterlimit:4;stroke-dasharray:none" />
    <path
       id="path4971"
       d="m 675.28697,713.45602 c -0.51415,11.46868 -0.13623,20.15487 1.69537,24.06256 1.52411,3.25167 8.43096,2.20141 15.47723,2.20141"
       style="fill:none;fill-rule:evenodd;stroke:#ff0000;stroke-width:2;stroke-linecap:round;stroke-linejoin:round;stroke-opacity:0.69491524;stroke-miterlimit:4;stroke-dasharray:none" />
    <path
       id="path4973"
       d="m 674.7819,727.59816 c 4.37805,-0.85614 11.8484,-0.50508 14.64721,-0.50508"
       style="fill:none;fill-rule:evenodd;stroke:#ff0000;stroke-width:2;stroke-linecap:round;stroke-linejoin:round;stroke-opacity:0.69491524;stroke-miterlimit:4;stroke-dasharray:none" />
    <path
       id="path4975"
       d="m 674.9713,714.02423 c 6.30437,-0.29746 9.32845,-0.0134 15.9099,0.31567"
       style="fill:none;fill-rule:evenodd;stroke:#ff0000;stroke-width:2;stroke-linecap:round;stroke-linejoin:round;stroke-opacity:0.69491524;stroke-miterlimit:4;stroke-dasharray:none" />
    <path
       id="path4977"
       d="m 709.63216,713.9611 c -0.7001,8.96058 -0.59604,18.57779 -1.01015,27.27412"
       style="fill:none;fill-rule:evenodd;stroke:#ff0000;stroke-width:2;stroke-linecap:round;stroke-linejoin:round;stroke-opacity:0.69491524;stroke-miterlimit:4;stroke-dasharray:none" />
    <path
       id="path4979"
       d="m 701.04587,714.08736 c 14.62348,-0.78542 15.76533,1.18523 22.8547,-0.37881"
       style="fill:none;fill-rule:evenodd;stroke:#ff0000;stroke-width:2;stroke-linecap:round;stroke-linejoin:round;stroke-opacity:0.69491524;stroke-miterlimit:4;stroke-dasharray:none" />
    <path
       id="path4981"
       d="m 360.77479,714.08741 c -0.12353,39.06408 -4.42622,61.39904 21.8515,54.80805"
       style="fill:none;fill-rule:evenodd;stroke:#ff0000;stroke-width:2;stroke-linecap:square;stroke-linejoin:round;stroke-opacity:0.64971751;stroke-miterlimit:4;stroke-dasharray:none" />
    <path
       id="path4983"
       d="m 360.20937,741.92205 c 6.23719,1.24803 13.04702,0.48616 19.168,0"
       style="fill:none;fill-rule:evenodd;stroke:#ff0000;stroke-width:2;stroke-linecap:square;stroke-linejoin:round;stroke-opacity:0.64971751;stroke-miterlimit:4;stroke-dasharray:none" />
    <path
       id="path4985"
       d="m 360.36818,714.40719 c 9.32067,-1.35612 14.14997,-0.45245 20.34132,0.89818"
       style="fill:none;fill-rule:evenodd;stroke:#ff0000;stroke-width:2;stroke-linecap:square;stroke-linejoin:round;stroke-opacity:0.64971751;stroke-miterlimit:4;stroke-dasharray:none" />
    <path
       id="path4987"
       d="m 389.52679,746.97224 c 9.31866,26.02613 6.08801,29.69895 14.56766,-0.60898"
       style="fill:none;fill-rule:evenodd;stroke:#ff0000;stroke-width:2;stroke-linecap:square;stroke-linejoin:round;stroke-opacity:0.64971751;stroke-miterlimit:4;stroke-dasharray:none" />
    <path
       id="path4991"
       d="m 409.9407,756.71589 c 2.97809,0.99831 7.44954,0.15225 10.49447,-2.20755 0.91197,-4.53821 -4.88909,-6.12302 -6.83931,-5.45872 -5.00062,1.70329 -7.71598,19.92196 7.36644,13.45157"
       style="fill:none;fill-rule:evenodd;stroke:#ff0000;stroke-width:2;stroke-linecap:square;stroke-linejoin:round;stroke-opacity:0.64971751;stroke-miterlimit:4;stroke-dasharray:none" />
    <path
       id="path4993"
       d="m 426.32933,747.58122 c -0.0221,6.53098 0.37727,13.30081 0.76673,19.48731"
       style="fill:none;fill-rule:evenodd;stroke:#ff0000;stroke-width:2;stroke-linecap:square;stroke-linejoin:round;stroke-opacity:0.64971751;stroke-miterlimit:4;stroke-dasharray:none" />
    <path
       id="path4997"
       d="m 426.71269,757.32488 c 4.31229,-16.03193 14.2892,-11.87156 13.64217,9.71305"
       style="fill:none;fill-rule:evenodd;stroke:#ff0000;stroke-width:2;stroke-linecap:square;stroke-linejoin:round;stroke-opacity:0.64971751;stroke-miterlimit:4;stroke-dasharray:none" />
    <path
       id="path5001"
       d="m 454.69796,753.671 c -6.91959,34.26711 -10.84706,-16.50663 -10.35071,-32.27584"
       style="fill:none;fill-rule:evenodd;stroke:#ff0000;stroke-width:2;stroke-linecap:square;stroke-linejoin:round;stroke-opacity:0.64971751;stroke-miterlimit:4;stroke-dasharray:none" />
    <path
       id="path5003"
       d="m 440.89701,738.90327 c 2.60624,0.91375 6.19054,-0.69058 8.43392,-1.0657"
       style="fill:none;fill-rule:evenodd;stroke:#ff0000;stroke-width:2;stroke-linecap:square;stroke-linejoin:round;stroke-opacity:0.64971751;stroke-miterlimit:4;stroke-dasharray:none" />
    <path
       id="path5007"
       d="m 468.11556,745.75428 c -26.33343,5.7308 21.58445,21.92323 -8.43392,21.92323"
       style="fill:none;fill-rule:evenodd;stroke:#ff0000;stroke-width:2;stroke-linecap:square;stroke-linejoin:round;stroke-opacity:0.64971751;stroke-miterlimit:4;stroke-dasharray:none" />
    <path
       id="path4941-7"
       d="m 117.68886,657.97327 c 5.66551,0.44312 11.2618,-0.22557 16.72475,-1.12932 4.10411,33.90373 -6.78373,63.61183 -21.16193,33.87922"
       style="fill:none;fill-rule:evenodd;stroke:#ff0000;stroke-width:2;stroke-linecap:square;stroke-linejoin:round;stroke-opacity:0.64971751;stroke-miterlimit:4;stroke-dasharray:none" />
    <path
       id="path4945-1"
       d="m 158.98875,657.4086 c -56.86282,-10.0755 44.45639,69.09551 -17.74871,47.43091"
       style="fill:none;fill-rule:evenodd;stroke:#ff0000;stroke-width:2;stroke-linecap:square;stroke-linejoin:round;stroke-opacity:0.64971751;stroke-miterlimit:4;stroke-dasharray:none" />
    <path
       id="path4949-3"
       d="m 176.73748,660.79654 c -11.36961,11.8291 -7.46049,65.43951 10.23964,43.47831 10.95974,-13.59816 7.19487,-60.44433 -10.23964,-43.47831 z"
       style="fill:none;fill-rule:evenodd;stroke:#ff0000;stroke-width:2;stroke-linecap:square;stroke-linejoin:round;stroke-opacity:0.64971751;stroke-miterlimit:4;stroke-dasharray:none" />
    <path
       id="path4951-6"
       d="m 200.9713,663.61979 c 1.79475,13.0494 1.34367,32.32106 -0.34133,42.91368"
       style="fill:none;fill-rule:evenodd;stroke:#ff0000;stroke-width:2;stroke-linecap:square;stroke-linejoin:round;stroke-opacity:0.64971751;stroke-miterlimit:4;stroke-dasharray:none" />
    <path
       id="path4953-6"
       d="m 200.9713,661.92583 c 7.56775,13.77069 10.76915,32.02048 15.70078,47.4309 -0.2971,-16.9422 1.53713,-32.789 2.04793,-49.68952"
       style="fill:none;fill-rule:evenodd;stroke:#ff0000;stroke-width:2;stroke-linecap:square;stroke-linejoin:round;stroke-opacity:0.64971751;stroke-miterlimit:4;stroke-dasharray:none" />
    <path
       id="path5054"
       d="m 223.46411,687.79565 c 4.18343,0 8.36684,0 12.55024,0"
       style="fill:none;fill-rule:evenodd;stroke:#ff0000;stroke-width:2;stroke-linecap:square;stroke-linejoin:round;stroke-opacity:0.64971751;stroke-miterlimit:4;stroke-dasharray:none" />
    <path
       id="path5056"
       d="m 246.63379,718.1402 c -1.63545,-17.13529 -2.26828,-33.37992 -2.41351,-51.10661 17.58199,-0.44257 15.19704,20.80333 0.96541,23.15769 9.42871,5.46442 14.27513,13.14296 21.23886,22.35913"
       style="fill:none;fill-rule:evenodd;stroke:#ff0000;stroke-width:2;stroke-linecap:square;stroke-linejoin:round;stroke-opacity:0.64971751;stroke-miterlimit:4;stroke-dasharray:none" />
    <path
       id="path5058"
       d="m 270.76886,713.34895 c -0.7966,-13.83711 -3.38108,-28.25677 -1.93081,-43.1212 18.68221,-1.17666 13.60833,14.35927 0.48271,22.35914"
       style="fill:none;fill-rule:evenodd;stroke:#ff0000;stroke-width:2;stroke-linecap:square;stroke-linejoin:round;stroke-opacity:0.64971751;stroke-miterlimit:4;stroke-dasharray:none" />
    <path
       id="path5064"
       d="m 300.21364,677.41463 c -20.36846,-12.54371 -20.87696,41.46113 1.93081,29.54599"
       style="fill:none;fill-rule:evenodd;stroke:#ff0000;stroke-width:2;stroke-linecap:square;stroke-linejoin:round;stroke-opacity:0.64971751;stroke-miterlimit:4;stroke-dasharray:none" />
    <path
       id="path5070"
       d="m 473.02082,501.48352 c 40.66667,0 81.33333,0 122,0"
       style="fill:none;fill-rule:evenodd;stroke:#000000;stroke-width:2;stroke-linecap:round;stroke-linejoin:round;stroke-miterlimit:4;stroke-dasharray:none;stroke-opacity:1" />
    <path
       id="path5074"
       d="m 539.40395,468.11473 c 62.79018,45.78246 91.70914,17.93566 -1.2505,60.90925"
       style="fill:none;fill-rule:evenodd;stroke:#000000;stroke-width:2;stroke-linecap:round;stroke-linejoin:round;stroke-miterlimit:4;stroke-dasharray:none;stroke-opacity:1" />
  </g>
</svg>
